<?xml version="1.0" encoding="UTF-8"?>
<svg width="115px" height="31px" viewBox="0 0 115 31" version="1.1" xmlns="http://www.w3.org/2000/svg" xmlns:xlink="http://www.w3.org/1999/xlink">
    <!-- Generator: Sketch 62 (91390) - https://sketch.com -->
    <title>logo</title>
    <desc>Created with Sketch.</desc>
    <defs>
        <linearGradient x1="0.23291815%" y1="50.0088243%" x2="100.088256%" y2="50.0088243%" id="linearGradient-1">
            <stop stop-color="#0066FF" offset="6%"></stop>
            <stop stop-color="#33DDFA" offset="53%"></stop>
            <stop stop-color="#A6FFCB" offset="92%"></stop>
        </linearGradient>
        <linearGradient x1="5.98906554e-15%" y1="50%" x2="100%" y2="50%" id="linearGradient-2">
            <stop stop-color="#0089FF" offset="0%"></stop>
            <stop stop-color="#12D8FA" offset="49%"></stop>
            <stop stop-color="#A6FFCB" offset="100%"></stop>
        </linearGradient>
    </defs>
    <g id="Music-Home" stroke="none" stroke-width="1" fill="none" fill-rule="evenodd">
        <g id="Music_home" transform="translate(-33.000000, -21.000000)" fill-rule="nonzero">
            <g id="侧导航">
                <g id="logo" transform="translate(33.000000, 21.000000)">
                    <path d="M45.9213244,14.9326582 C46.162858,14.7592859 46.3793342,14.5557469 46.5650499,14.3274036 C46.9483025,13.8604232 47.1545773,13.2816246 47.1498081,12.6865963 C47.213605,11.6152545 46.7337102,10.5806327 45.8623572,9.91093664 C44.8792744,9.26259631 43.7010774,8.94508027 42.5110537,9.00778333 L38.3833485,9.00778333 C38.171665,9.00778333 38.0000301,9.1729128 38.0000301,9.37661033 L38.0000301,21.6188298 C37.9987474,21.7174655 38.0385483,21.8124975 38.1105715,21.882692 C38.1825947,21.9528866 38.2808374,21.9923935 38.3833485,21.9923854 L43.4053898,21.9923854 C44.5914166,22.0558017 45.76361,21.7215881 46.7222958,21.0466751 C47.5835163,20.3439925 48.0542722,19.2945806 47.9950049,18.2095443 C48.0112695,17.3788923 47.7243612,16.5690449 47.1842056,15.9209254 C46.8575553,15.4934064 46.4228621,15.1532374 45.9213244,14.9326582 L45.9213244,14.9326582 Z M40.4865126,16.2377384 L43.4348734,16.2377384 C44.0011592,16.2288301 44.5495907,16.4284246 44.9680211,16.7957074 C45.3428772,17.1581963 45.5410016,17.6562908 45.5134678,18.1669873 C45.5500596,18.6548898 45.3591726,19.1331655 44.9925907,19.4720675 C44.5482277,19.8131753 43.9872662,19.9818624 43.4201316,19.9449226 L40.4717708,19.9449226 L40.4865126,16.2377384 Z M44.1916194,13.7883488 C43.825691,14.0801017 43.3590615,14.2286515 42.8845127,14.2044613 L40.4865126,14.2044613 L40.4865126,11.0505175 L42.5257955,11.0505175 C43.1034078,11.01082 43.6785165,11.1554051 44.1621358,11.4619015 C44.5137438,11.761163 44.6962254,12.203668 44.6535292,12.6534964 C44.6848876,13.0793954 44.5152257,13.4962327 44.1916194,13.7883488 L44.1916194,13.7883488 Z" id="形状" fill="#FFFFFF"></path>
                    <path d="M52.9870332,12.0042849 C51.868504,11.9498906 50.7901189,12.4661138 50.0672195,13.4020005 C49.3391485,14.3917904 48.9613738,15.6356667 49.0031474,16.9056073 L49.0031474,17.0873104 C48.9611527,18.3594844 49.3405614,19.6054182 50.0714758,20.5955763 C50.8264555,21.490836 51.8888712,22 53.0019302,22 C54.1149892,22 55.1774049,21.490836 55.9323847,20.5955763 C56.6630933,19.6037443 57.0410738,18.3558803 56.9964567,17.0826513 L56.9964567,16.9009483 C57.0384514,15.6287743 56.6590428,14.3828404 55.9281284,13.3926823 C55.1949683,12.4594421 54.110282,11.9473963 52.9870332,12.0042849 Z M52.9870332,14.0169953 C53.5312093,13.984682 54.0482858,14.279291 54.3362766,14.7857388 C54.6885146,15.4304915 54.8615577,16.1735924 54.8342623,16.9242436 L54.8342623,17.1059466 C54.8633178,17.8612168 54.6902376,18.6093346 54.3362766,19.2584285 C54.027333,19.7344963 53.5268925,20.0173055 52.9934176,20.0173055 C52.4599428,20.0173055 51.9595023,19.7344963 51.6505587,19.2584285 C51.2994605,18.6082166 51.1279715,17.8605862 51.1568293,17.1059466 L51.1568293,16.9242436 C51.1303511,16.1728221 51.3017308,15.428903 51.6505587,14.7810798 C51.9334642,14.2763559 52.4469742,13.9827738 52.9870332,14.0169953 Z" id="形状" fill="#FFFFFF"></path>
                    <path d="M62.9892672,12.0040872 C61.869058,11.9503716 60.7890852,12.4663312 60.0636946,13.4017865 C59.3381338,14.3930237 58.9618684,15.6362525 59.0033342,16.9053525 L59.0033342,17.0870534 C58.9601189,18.3586237 59.3381904,19.604478 60.0679531,20.5952784 C60.8240811,21.4907658 61.8877359,22 63.0020426,22 C64.1163493,22 65.1800041,21.4907658 65.9361322,20.5952784 C66.6643192,19.6019888 67.0407877,18.3547808 66.9964925,17.0823944 L66.9964925,16.9006935 C67.0397079,15.6291232 66.6616363,14.3832689 65.9318737,13.3924685 C65.1975636,12.4603908 64.1128584,11.948605 62.9892672,12.0040872 Z M62.9892672,14.0167741 C63.5335221,13.985476 64.0504207,14.2798289 64.3392039,14.7855087 C64.6916229,15.4302539 64.864755,16.1733461 64.8374455,16.9239885 L64.8374455,17.1056894 C64.8655864,17.860238 64.6940605,18.6076361 64.3434624,19.2581462 C64.0334245,19.7342346 63.5320949,20.0169107 62.9977841,20.0169107 C62.4634734,20.0169107 61.9621438,19.7342346 61.6521059,19.2581462 C61.3008273,18.6079419 61.1292501,17.8603202 61.1581228,17.1056894 L61.1581228,16.9239885 C61.1307214,16.1718629 61.3038305,15.4272507 61.6563644,14.7808497 C61.9380129,14.2768832 62.4502136,13.9832684 62.9892672,14.0167741 Z" id="形状" fill="#FFFFFF"></path>
                    <path d="M77.7247424,12.0025338 C77.0941043,11.9897857 76.4734006,12.1653078 75.9378207,12.5078379 C75.6066908,12.7254268 75.3132522,12.9983653 75.0696248,13.3153801 C74.8626791,12.9778625 74.5848617,12.692253 74.2565524,12.4795031 C73.7451842,12.1551727 73.1529642,11.9910675 72.552316,12.0072562 C71.9583821,11.9951696 71.3704509,12.1312859 70.8388923,12.4039436 C70.6032344,12.5329112 70.3841165,12.6915475 70.186597,12.8761905 L70.1544416,12.5220053 C70.1356971,12.3326372 69.9812862,12.1881415 69.7961385,12.18671 L68.3583326,12.18671 C68.1604472,12.18671 68,12.3516271 68,12.5550626 L68,21.626925 C67.9988009,21.7254338 68.0360075,21.8203435 68.103336,21.8904478 C68.1706645,21.960552 68.2625034,22 68.3583326,22 L69.9661028,22 C70.0619319,22 70.1537708,21.960552 70.2210993,21.8904478 C70.2884278,21.8203435 70.3256344,21.7254338 70.3244058,21.626925 L70.3244058,15.0154688 C70.4512962,14.7532324 70.644975,14.5312726 70.8848286,14.373213 C71.1910531,14.1697423 71.5492383,14.0645333 71.9138015,14.070975 C72.3149003,14.0475938 72.7026152,14.2231838 72.9565553,14.5432219 C73.2521224,15.0311861 73.3858963,15.6044867 73.3378266,16.1771961 L73.3378266,21.626925 C73.336598,21.7254338 73.3738046,21.8203435 73.4411331,21.8904478 C73.5084616,21.960552 73.6003005,22 73.6961296,22 L75.3130871,22 C75.4089163,22 75.5007552,21.960552 75.5680837,21.8904478 C75.6354121,21.8203435 75.6726188,21.7254338 75.6713902,21.626925 L75.6713902,15.8041211 C75.7041268,15.3381642 75.8830507,14.8957084 76.181283,14.5432219 C76.4492735,14.2289221 76.8407306,14.0554581 77.247005,14.070975 C77.6443231,14.0359537 78.034859,14.1930583 78.3035397,14.4959972 C78.5961248,14.9953071 78.72495,15.5780364 78.67103,16.1583062 L78.67103,21.626925 C78.67103,21.8329686 78.8335044,22 79.0339267,22 L80.6371033,22 C80.8375256,22 81,21.8329686 81,21.626925 L81,16.186641 C81,14.82657 80.7060077,13.7829045 80.1318041,13.0839791 C79.5333858,12.3628641 78.6460094,11.9641834 77.7247424,12.0025338 Z" id="路径" fill="#FFFFFF"></path>
                    <rect id="矩形" fill="#FFFFFF" x="93" y="9" width="2" height="14" rx="0.78"></rect>
                    <path d="M104.821628,20.5201566 C104.790218,20.2270303 104.775078,19.9323134 104.77628,19.6374287 L104.77628,15.3399372 C104.826999,14.3875014 104.447398,13.4640748 103.746873,12.8357774 C103.005964,12.255416 102.089189,11.9609793 101.157484,12.0041547 C100.191606,11.9641945 99.2438083,12.2807236 98.4864688,12.8961746 C97.8309438,13.3736084 97.4501647,14.1538253 97.4706667,14.9775542 C97.4641902,15.0097373 97.4641902,15.0429357 97.4706667,15.0751189 L97.4706667,15.1215782 C97.5194866,15.2715062 97.6565081,15.3725789 97.810779,15.3724588 L99.3163429,15.3724588 C99.5116954,15.3724588 99.6700598,15.2102144 99.6700598,15.0100757 C99.672817,14.743154 99.8011653,14.4940096 100.014707,14.3410609 C100.309189,14.1190023 100.669961,14.0089403 101.035044,14.0297831 C101.425461,13.9979927 101.812173,14.1267116 102.109799,14.3875202 C102.360171,14.6451109 102.490624,15.0003812 102.468051,15.3631669 L102.468051,15.8835118 L101.107601,15.8835118 C100.073414,15.8276408 99.047061,16.0949711 98.1644958,16.6500914 C97.4152205,17.1592702 96.976124,18.0291063 97.0035791,18.94983 C96.9635371,19.776241 97.2608998,20.5824648 97.8243835,21.1752337 C98.459954,21.7558058 99.2965503,22.0504316 100.146217,21.9929186 C100.74807,21.9994574 101.34042,21.8389117 101.860383,21.5283249 C102.110755,21.3753362 102.346144,21.1979699 102.563282,20.9986881 C102.590491,21.1659418 102.622235,21.3517793 102.663048,21.5469086 C102.694038,21.7187542 102.841679,21.8425109 103.01223,21.8396026 L104.64477,21.8396026 C104.757532,21.8388726 104.863378,21.7837923 104.930464,21.6909327 C104.997041,21.5988949 105.01722,21.480025 104.984882,21.370363 C104.903204,21.0931766 104.848519,20.8083849 104.821628,20.5201566 L104.821628,20.5201566 Z M102.47712,17.6675515 L102.47712,18.6850116 C102.314532,19.0197829 102.05893,19.2978108 101.742478,19.4841128 C101.337262,19.7515713 100.864011,19.8905604 100.382028,19.8836633 C100.084503,19.9094102 99.7883732,19.8198867 99.5521542,19.6327827 C99.3789078,19.4553191 99.289534,19.2094539 99.3072733,18.9591219 C99.3164717,18.6087084 99.4840277,18.2825522 99.7607564,18.0763939 C100.133383,17.7825238 100.597476,17.6372434 101.066788,17.6675515 L102.47712,17.6675515 Z" id="形状" fill="#FFFFFF"></path>
                    <path d="M114.928854,12.1548514 C114.868104,12.0578844 114.766385,11.9998181 114.657602,12 L113.008899,12 C112.865406,11.9989771 112.738123,12.0987829 112.695264,12.2459357 L110.999939,17.7702032 L110.999939,17.7702032 L109.304615,12.2641526 C109.257895,12.1180522 109.130505,12.0194955 108.986741,12.0182248 L107.3338,12.0182248 C107.224755,12.0185848 107.122705,12.0759811 107.060285,12.1720579 C106.997865,12.2681348 106.982896,12.3908551 107.020165,12.500972 L109.986983,20.9399395 L109.681824,21.7278194 C109.561893,22.050892 109.405304,22.3568201 109.21561,22.6386632 C109.108344,22.8271494 108.916852,22.9412716 108.711251,22.9392416 C108.685821,22.9392416 108.601055,22.9392416 108.342518,22.9164705 C108.01193,22.8891452 107.753393,22.8709283 107.715248,23.2124948 C107.713144,23.2336877 107.713144,23.2550609 107.715248,23.2762538 L107.575384,24.4649049 C107.554911,24.6430762 107.659803,24.8101991 107.821206,24.8565678 C107.93564,24.8884473 108.083981,24.9157726 108.283182,24.9476521 C108.451433,24.9769621 108.621373,24.993701 108.791779,24.9977485 C109.465516,25.0282216 110.119319,24.7482019 110.588823,24.2280856 C111.006597,23.749535 111.330858,23.1858522 111.542443,22.5703499 L114.98819,12.4690925 C115.016034,12.3601659 114.994005,12.2435028 114.928854,12.1548514 L114.928854,12.1548514 Z" id="路径" fill="#FFFFFF"></path>
                    <path d="M88.2888985,12.0020418 C87.7291187,11.9896633 87.1749294,12.1179921 86.6750097,12.3757559 C86.4211828,12.5084475 86.1870266,12.6772327 85.9795217,12.8770796 L85.8858983,12.4441182 C85.8503788,12.2793343 85.7076752,12.1618726 85.5426126,12.1615539 L84.3477999,12.1615539 C84.2547948,12.1615461 84.1656623,12.1996237 84.100318,12.2672789 C84.0349737,12.3349341 83.9988635,12.4265281 84.0000273,12.5215955 L84.0000273,24.6399584 C83.9988635,24.7350258 84.0349737,24.8266198 84.100318,24.894275 C84.1656623,24.9619302 84.2547948,25 84.3477999,25 L85.9081896,25 C86.0011947,25 86.0903272,24.9619302 86.1556715,24.894275 C86.2210158,24.8266198 86.257126,24.7350258 86.2559336,24.6399584 L86.2559336,21.1944968 C86.4204426,21.3146805 86.5967524,21.4170168 86.7820079,21.4998486 C87.2670196,21.7086455 87.7894829,21.8111167 88.315648,21.8006428 C89.3734661,21.8436144 90.3864241,21.3615106 91.0351844,20.506316 C91.7069894,19.5557684 92.0447776,18.4009985 91.9937095,17.2294815 L91.9937095,17.0608544 C92.0506007,15.7853668 91.7204881,14.5230743 91.0485592,13.4467657 C90.4357671,12.5088215 89.3915491,11.9621576 88.2888985,12.0020418 L88.2888985,12.0020418 Z M89.7378318,17.0608544 L89.7378318,17.2294815 C89.768506,17.9133265 89.5909339,18.5900627 89.2295906,19.1664143 C88.9130813,19.6242705 88.3857159,19.8799992 87.8386146,19.8409226 C87.497079,19.8535725 87.1588893,19.7683272 86.8622565,19.5948182 C86.6143606,19.4332305 86.4067527,19.2147597 86.2559336,18.9567698 L86.2559336,14.9142772 C86.4065643,14.6536813 86.6140711,14.4321973 86.8622565,14.2671137 C87.1530698,14.0903832 87.4870616,14.0018654 87.8252398,14.0118944 C88.3973758,13.984967 88.9355044,14.2899939 89.2162158,14.8003399 C89.5880222,15.4913028 89.7683699,16.2728711 89.7378318,17.0608544 Z" id="形状" fill="#FFFFFF"></path>
                    <circle id="_路径_" fill="#000000" cx="15.5" cy="15.5" r="15.5"></circle>
                    <path d="M21.9145303,10.4850226 C22.355522,7.70685687 21.09,6.21296707 18.1179644,6.00335322 L13.9953132,6.00335322 C13.2298102,5.95274529 12.545086,6.48011611 12.3928363,7.23757211 L12.0714093,8.38262691 L15.6630071,8.26999857 C16.4689039,8.09636321 17.4797687,8.73928332 18.0434306,9.87495242 C18.676968,11.1373284 18.4393915,12.2917689 17.6008861,12.718818 C16.7623808,13.1458671 15.6443737,12.6812752 15.0108363,11.4235921 C14.545,10.4850226 14.5123915,9.63092435 14.8897189,9.00677563 L11.9130249,9.10063258 L9.80278648,16.3557749 L14.2794733,16.1774467 C15.3415801,15.9381114 16.6831886,16.7922097 17.4378434,18.2657638 C18.2856655,19.922339 18.0853559,21.4334359 16.9720071,22.0200418 C15.8586584,22.6066478 14.2934484,22.0200418 13.4456263,20.3587738 C12.8027722,19.1057835 12.7655053,17.9419573 13.2546335,17.1160162 L9.52794306,17.2614944 C9.52794306,17.2614944 8.15372598,22.0435061 8.13043416,22.2218343 C8.06731745,22.4793648 8.02371391,22.7413539 8,23.0055398 C8,24.1070498 8.88638857,25 9.97980427,25 L10.4456406,25 L13.0356904,25 C16.9952989,24.7888219 19.5853488,22.9210685 20.8291317,19.4389757 C21.375713,16.8015954 20.4440404,15.2373129 18.0341139,14.7461282 L18.0620641,14.6428855 C19.9378316,14.0860009 21.221987,12.7000466 21.9145303,10.4850226 Z" id="路径" fill="url(#linearGradient-1)"></path>
                    <path d="M15,2 C7.2680135,2 1,8.2680135 1,16 C1,23.7319865 7.2680135,30 15,30 C22.7319865,30 29,23.7319865 29,16 C28.9921945,8.27124896 22.728751,2.00780551 15,2 Z M15,29.0465282 C9.72040455,29.0484364 4.95969917,25.8693019 2.93840348,20.9919568 C0.917107785,16.1146117 2.03341712,10.4998931 5.7666551,6.7666551 C9.49989309,3.03341712 15.1146117,1.91710778 19.9919568,3.93840348 C24.8693019,5.95969917 28.0484364,10.7204046 28.0465282,16 C28.0387229,23.2021629 22.2021629,29.0387229 15,29.0465282 Z" id="形状" fill="url(#linearGradient-2)"></path>
                </g>
            </g>
        </g>
    </g>
</svg>